<mxfile host="drawio-plugin" modified="2021-05-19T13:50:09.758Z" agent="5.0 (Windows NT 6.2; Win64; x64) AppleWebKit/537.36 (KHTML, like Gecko) Chrome/87.0.4280.141 Safari/537.36" etag="jXRpvxkcwUp4OHUayoXN" version="14.6.6" type="embed"><diagram id="C5RBs43oDa-KdzZeNtuy" name="Page-1"><mxGraphModel dx="1277" dy="1600" grid="1" gridSize="10" guides="1" tooltips="1" connect="1" arrows="1" fold="1" page="1" pageScale="1" pageWidth="827" pageHeight="1169" math="0" shadow="0"><root><mxCell id="WIyWlLk6GJQsqaUBKTNV-0"/><mxCell id="WIyWlLk6GJQsqaUBKTNV-1" parent="WIyWlLk6GJQsqaUBKTNV-0"/><mxCell id="vDixfCjJ97c87MF9jjHW-0" value="Singleton" style="swimlane;fontStyle=0;childLayout=stackLayout;horizontal=1;startSize=26;fillColor=none;horizontalStack=0;resizeParent=1;resizeParentMax=0;resizeLast=0;collapsible=1;marginBottom=0;" parent="WIyWlLk6GJQsqaUBKTNV-1" vertex="1"><mxGeometry x="244" y="-390" width="260" height="120" as="geometry"/></mxCell><mxCell id="vDixfCjJ97c87MF9jjHW-1" value="- instance : Singleton" style="text;strokeColor=none;fillColor=none;align=left;verticalAlign=top;spacingLeft=4;spacingRight=4;overflow=hidden;rotatable=0;points=[[0,0.5],[1,0.5]];portConstraint=eastwest;" parent="vDixfCjJ97c87MF9jjHW-0" vertex="1"><mxGeometry y="26" width="260" height="34" as="geometry"/></mxCell><mxCell id="vDixfCjJ97c87MF9jjHW-2" value="- Singleton()" style="text;strokeColor=none;fillColor=none;align=left;verticalAlign=top;spacingLeft=4;spacingRight=4;overflow=hidden;rotatable=0;points=[[0,0.5],[1,0.5]];portConstraint=eastwest;" parent="vDixfCjJ97c87MF9jjHW-0" vertex="1"><mxGeometry y="60" width="260" height="30" as="geometry"/></mxCell><mxCell id="vDixfCjJ97c87MF9jjHW-3" value="+ get_instance() : Singleton" style="text;strokeColor=none;fillColor=none;align=left;verticalAlign=top;spacingLeft=4;spacingRight=4;overflow=hidden;rotatable=0;points=[[0,0.5],[1,0.5]];portConstraint=eastwest;" parent="vDixfCjJ97c87MF9jjHW-0" vertex="1"><mxGeometry y="90" width="260" height="30" as="geometry"/></mxCell><mxCell id="vDixfCjJ97c87MF9jjHW-4" value="" style="endArrow=open;endFill=1;endSize=12;html=1;entryX=0.5;entryY=0;entryDx=0;entryDy=0;exitX=1;exitY=0.5;exitDx=0;exitDy=0;" parent="vDixfCjJ97c87MF9jjHW-0" source="vDixfCjJ97c87MF9jjHW-2" target="vDixfCjJ97c87MF9jjHW-0" edge="1"><mxGeometry width="160" relative="1" as="geometry"><mxPoint x="280" y="140" as="sourcePoint"/><mxPoint x="110" y="-40" as="targetPoint"/><Array as="points"><mxPoint x="340" y="75"/><mxPoint x="340" y="-50"/><mxPoint x="130" y="-50"/></Array></mxGeometry></mxCell></root></mxGraphModel></diagram></mxfile>